<?xml version="1.0" encoding="utf-8"?>
<!-- Generator: Adobe Illustrator 24.3.0, SVG Export Plug-In . SVG Version: 6.00 Build 0)  -->
<svg version="1.1" xmlns="http://www.w3.org/2000/svg" xmlns:xlink="http://www.w3.org/1999/xlink" x="0px" y="0px"
	 viewBox="0 0 1000 1000" style="enable-background:new 0 0 1000 1000;" xml:space="preserve">
<style type="text/css">
	.st0{display:none;}
	.st1{display:inline;fill:#D28328;}
	.st2{display:inline;fill:#AB5D37;}
	.st3{display:inline;fill:#7C4234;}
	.st4{display:inline;fill:#C97847;}
	.st5{display:inline;fill:#AD5F3E;}
	.st6{fill:#D28328;}
	.st7{fill:#AB5D37;}
	.st8{fill:#7C4234;}
	.st9{fill:#C97847;}
	.st10{fill:#AD5F3E;}
	.st11{fill:#FECE3A;}
	.st12{display:inline;fill:#F1D37F;}
	.st13{display:inline;fill:#F1BD22;}
	.st14{display:inline;fill:#151515;}
	.st15{display:none;fill:#D28328;}
	.st16{display:none;fill:#AB5D37;}
	.st17{display:none;fill:#7C4234;}
	.st18{display:none;fill:#C97847;}
	.st19{display:none;fill:#AD5F3E;}
	.st20{display:none;fill:#FECE3A;}
	.st21{fill:#F2F2F2;}
	.st22{fill:#E6E7E7;}
	.st23{display:inline;fill:#28A8E0;}
	.st24{display:inline;fill:#595A5C;}
	.st25{display:inline;fill:#808184;}
	.st26{display:inline;fill:#FCEE1F;}
	.st27{display:inline;fill:#010101;}
	.st28{display:inline;fill:#FDD1AC;}
	.st29{display:inline;fill:#282828;}
	.st30{display:inline;fill:#212121;}
</style>
<g id="ruche_normale" class="st0">
	<polygon class="st1" points="772.2,325.1 772.2,345.9 500,190.7 227.8,348.7 227.8,327.9 500,169.9 	"/>
	<path class="st2" d="M500,190.7l-272.2,158v618.9h544.5V345.9L500,190.7z M500.3,295.5c-8.7,0-15.7-7-15.7-15.7
		c0-8.6,7-15.7,15.7-15.7s15.7,7,15.7,15.7C516,288.4,509,295.5,500.3,295.5z"/>
	<path class="st2" d="M484.7,279.8c0-8.6,7-15.7,15.7-15.7s15.7,7,15.7,15.7c0,8.7-7,15.7-15.7,15.7S484.7,288.4,484.7,279.8z"/>
	<rect x="227.8" y="967.6" class="st2" width="544.5" height="20.8"/>
	<path class="st3" d="M516,279.8c0,8.7-7,15.7-15.7,15.7s-15.7-7-15.7-15.7c0-8.6,7-15.7,15.7-15.7S516,271.1,516,279.8z"/>
	<rect x="227.8" y="348.7" class="st4" width="544.5" height="210"/>
	<rect x="227.8" y="566.1" class="st4" width="544.5" height="210"/>
	<rect x="227.8" y="783.6" class="st4" width="544.5" height="210"/>
	<rect x="450.9" y="434.8" class="st5" width="98.2" height="37.9"/>
	<rect x="450.9" y="652.2" class="st5" width="98.2" height="37.9"/>
	<rect x="450.9" y="869.6" class="st5" width="98.2" height="37.9"/>
</g>
<g id="ruche_miel" class="st0">
	<polygon class="st6" points="772.2,325.1 772.2,345.9 500,190.7 227.8,348.7 227.8,327.9 500,169.9 	"/>
	<path class="st7" d="M500,190.7l-272.2,158v618.9h544.5V345.9L500,190.7z M500.3,295.5c-8.7,0-15.7-7-15.7-15.7
		c0-8.6,7-15.7,15.7-15.7s15.7,7,15.7,15.7C516,288.4,509,295.5,500.3,295.5z"/>
	<path class="st7" d="M484.7,279.8c0-8.6,7-15.7,15.7-15.7s15.7,7,15.7,15.7c0,8.7-7,15.7-15.7,15.7S484.7,288.4,484.7,279.8z"/>
	<rect x="227.8" y="967.6" class="st7" width="544.5" height="20.8"/>
	<path class="st8" d="M516,279.8c0,8.7-7,15.7-15.7,15.7s-15.7-7-15.7-15.7c0-8.6,7-15.7,15.7-15.7S516,271.1,516,279.8z"/>
	<rect x="227.8" y="348.7" class="st9" width="544.5" height="210"/>
	<rect x="227.8" y="566.1" class="st9" width="544.5" height="210"/>
	<rect x="227.8" y="783.6" class="st9" width="544.5" height="210"/>
	<rect x="450.9" y="434.8" class="st10" width="98.2" height="37.9"/>
	<rect x="450.9" y="652.2" class="st10" width="98.2" height="37.9"/>
	<rect x="450.9" y="869.6" class="st10" width="98.2" height="37.9"/>
	<path class="st11" d="M236.8,800.5l-14.1-0.9c-2.8-12.7,5.9-25.6,16.4-31c10.5-5.4,22.5-5.2,34-6c32.2-2.3,63.7-12.7,95.8-16.1
		c18.5-2,37.2-1.6,55.8-1.1c110.7,2.7,221.5,7.7,332,14.9c6.9,0.4,14.5,1.2,19.4,6.9c5.4,6.3,4.9,17.7-1,23.4c0,0-11.7-0.4-16,3.8
		c-4.3,4.2-5.9,11.6-3.8,17.6c1.3,3.8,4,7.4,3.5,11.4c-0.7,5.5-7.4,7.7-11.7,5c-4.3-2.7-6.3-8.5-7.2-13.9c-1-5.5-1.2-11.2-3.1-16.2
		c-11.6-4.9-24.7,11-36,5.2c-6.8-3.5-10.5-14-18-14c-5.5,0-9.7,6.5-9.9,12.7c-0.2,6.3,2.3,12.2,4.9,17.7c4.2,8.9,8.8,18.2,9,28.3
		c0.2,10.1-5.7,21.2-14.6,22c-10.8,0.8-18.1-14.2-16-26.3c1.4-7.8,4.9-17.3-0.2-22.7c-9.1-9.6-24.3,13.2-34.6,5.4
		c-4.4-3.3-4.9-10.4-8.1-15.2c-6.6-10-22.2-4.9-26.9,6.5c-4.7,11.3-1.6,24.8,2.9,36.2c3.7,9.3,8.2,18.3,9.1,28.4
		c0.9,10.1-3.4,21.7-11.9,24.5c-6.1,2-12.6-1-17.6-5.3c-9.6-8.4-15.1-22.3-14.4-36c0.6-10.5,4.6-20.3,6.1-30.6
		c1.5-10.3-0.3-22.7-8.2-28.1c-9.7-6.6-22.2,0.6-33.3-1.4c-6.4-1.2-12-5.3-18.3-7.1c-6.3-1.8-14.3-0.3-16.8,6.4
		c-4.1,10.7,8.5,25.5,0.9,33.4c-4.5,4.7-12.3,0.9-15.1-5.2c-2.9-6.1-2.5-13.4-3.1-20.3c-0.6-6.9-2.7-14.5-8.2-17.5
		c-9.6-5.2-19.6,7.5-30.3,8c-6.2,0.3-11.8-3.6-17.5-6.2c-5.7-2.6-13-3.6-17.4,1.3c-7.2,8.1-0.6,24.9-8.6,31.9
		c-4.1,3.6-10.5,2.1-14-2.2c-3.5-4.3-4.4-10.8-3.6-16.6c0.9-6.4,3.8-13.2,1.3-19.1c-2.9-7-12.5-7.7-17.6-2.5
		c-5.1,5.2-6.2,14-4.7,21.6c1.4,7.6,5,14.4,8,21.5c4.5,10.5,7.8,21.6,9.8,33c1.9,10.5,2.4,22.2-3.1,30.9c-6,9.4-18.3,12.1-27.6,7.2
		c-9.3-4.9-15.3-16.1-16.4-27.6c-1.2-13.1,3.2-25.9,6.6-38.5c3.4-12.6,5.6-26.8,0.3-38.5c-5.2-11.7-20.9-17.7-28.8-8.1
		c-6.4,7.8-4.3,20.2-1.3,30.2c3,10,6.6,21.4,2.2,30.8c-3.5,7.5-11.9,11.4-19,8.9c-7.1-2.6-12-11.3-11-19.7
		c0.9-7.2,5.4-13.1,8.8-19.3c3.4-6.2,5.7-14.4,2.2-20.5c-4.3-7.5-14.1-6.6-21.8-4.9L236.8,800.5L236.8,800.5z"/>
	<path class="st11" d="M765.1,573l-17.8-2.8c-7.7-1.3-17.4-1.9-21.8,3.6c-3.5,4.4-1.2,10.4,2.2,14.9c3.4,4.5,7.9,8.8,8.8,14
		c1,6.1-3.9,12.5-11,14.3c-7.1,1.9-15.5-1-19-6.4c-4.3-6.8-0.8-15.1,2.2-22.4c3-7.3,5-16.3-1.3-22c-7.9-7-23.5-2.7-28.8,5.9
		s-3,18.9,0.3,28c3.4,9.2,7.8,18.5,6.6,28c-1.1,8.4-7.1,16.6-16.4,20.1c-9.3,3.5-21.6,1.6-27.6-5.3c-5.5-6.3-4.9-14.9-3.1-22.5
		c2-8.3,5.3-16.4,9.8-24c3-5.1,6.5-10.1,8-15.6c1.4-5.5,0.3-12-4.7-15.8c-5.1-3.8-14.6-3.3-17.6,1.8c-2.5,4.3,0.4,9.3,1.3,13.9
		c0.9,4.2,0,8.9-3.6,12.1c-3.5,3.2-9.9,4.2-14,1.6c-8-5.1-1.4-17.3-8.6-23.2c-4.4-3.6-11.7-2.9-17.4-1c-5.7,1.9-11.4,4.7-17.5,4.5
		c-10.6-0.4-20.7-9.6-30.3-5.8c-5.5,2.2-7.6,7.7-8.2,12.7c-0.6,5-0.2,10.3-3.1,14.8c-2.9,4.5-10.6,7.2-15.1,3.8
		c-7.6-5.8,5-16.5,0.9-24.3c-2.6-4.9-10.6-6-16.8-4.7c-6.3,1.3-11.9,4.3-18.3,5.2c-11.1,1.5-23.6-3.8-33.3,1
		c-7.9,3.9-9.7,12.9-8.2,20.4c1.5,7.5,5.5,14.7,6.1,22.3c0.8,10-4.8,20.1-14.4,26.2c-5,3.2-11.5,5.3-17.6,3.9
		c-8.6-2-12.8-10.5-11.9-17.8c0.9-7.3,5.4-14,9.1-20.7c4.5-8.3,7.6-18.1,2.9-26.4c-4.7-8.2-20.3-12-26.9-4.7
		c-3.1,3.5-3.7,8.6-8.1,11c-10.4,5.7-25.5-10.9-34.6-3.9c-5.1,3.9-1.6,10.8-0.2,16.5c2.1,8.8-5.2,19.8-16,19.2
		c-8.9-0.5-14.9-8.6-14.6-16s4.8-14.1,9-20.6c2.6-4,5.2-8.3,4.9-12.9c-0.2-4.6-4.4-9.3-9.9-9.3c-7.4,0-11.2,7.7-18,10.2
		c-11.3,4.2-24.3-7.4-36-3.8c-2,3.7-2.2,7.9-3.1,11.8c-1,4-3,8.1-7.2,10.1c-4.3,2-11,0.4-11.7-3.6c-0.5-3,2.2-5.6,3.5-8.3
		c2.1-4.4,0.5-9.8-3.8-12.8c-4.3-3.1-16-2.7-16-2.7c-5.9-4.1-6.4-12.4-1-17c4.9-4.1,12.5-4.7,19.4-5c110.6-5.2,221.3-8.9,332-10.8
		c18.6-0.3,37.2-0.6,55.8,0.8c32.2,2.5,63.6,10.1,95.8,11.8c11.5,0.6,23.5,0.5,34,4.4c10.5,3.9,19.2,13.3,16.4,22.6L765.1,573
		L765.1,573z"/>
	<path class="st11" d="M236.8,360.8l-14.1-0.6c-2.8-8.8,5.9-17.9,16.4-21.6c10.5-3.7,22.5-3.6,34-4.2c32.2-1.6,63.7-8.9,95.8-11.2
		c18.5-1.4,37.2-1.1,55.8-0.8c110.7,1.9,221.5,5.4,332,10.4c6.9,0.3,14.5,0.9,19.4,4.8c5.4,4.4,4.9,12.3-1,16.3c0,0-11.7-0.3-16,2.6
		c-4.3,2.9-5.9,8.1-3.8,12.2c1.3,2.7,4,5.1,3.5,8c-0.7,3.8-7.4,5.4-11.7,3.4c-4.3-1.9-6.3-5.9-7.2-9.7c-1-3.8-1.2-7.8-3.1-11.3
		c-11.6-3.4-24.7,7.7-36,3.6c-6.8-2.4-10.5-9.7-18-9.8c-5.5,0-9.7,4.5-9.9,8.9c-0.2,4.4,2.3,8.5,4.9,12.3c4.2,6.2,8.8,12.7,9,19.7
		c0.2,7.1-5.7,14.8-14.6,15.3c-10.8,0.6-18.1-9.9-16-18.3c1.4-5.4,4.9-12-0.2-15.8c-9.1-6.7-24.3,9.2-34.6,3.8
		c-4.4-2.3-4.9-7.2-8.1-10.5c-6.6-7-22.2-3.4-26.9,4.5c-4.7,7.9-1.6,17.3,2.9,25.2c3.7,6.4,8.2,12.8,9.1,19.8
		c0.9,7-3.4,15.1-11.9,17c-6.1,1.4-12.6-0.7-17.6-3.7c-9.6-5.8-15.1-15.5-14.4-25c0.6-7.3,4.6-14.1,6.1-21.3
		c1.5-7.2-0.3-15.8-8.2-19.5c-9.7-4.6-22.2,0.4-33.3-1c-6.4-0.8-12-3.7-18.3-5c-6.3-1.3-14.3-0.2-16.8,4.4
		c-4.1,7.5,8.5,17.7,0.9,23.2c-4.5,3.3-12.3,0.6-15.1-3.7c-2.9-4.3-2.5-9.3-3.1-14.1c-0.6-4.8-2.7-10.1-8.2-12.2
		c-9.6-3.6-19.6,5.2-30.3,5.6c-6.2,0.2-11.8-2.5-17.5-4.3c-5.7-1.8-13-2.5-17.4,0.9c-7.2,5.6-0.6,17.3-8.6,22.2
		c-4.1,2.5-10.5,1.5-14-1.5c-3.5-3-4.4-7.5-3.6-11.5c0.9-4.5,3.8-9.2,1.3-13.3c-2.9-4.9-12.5-5.4-17.6-1.8
		c-5.1,3.6-6.2,9.8-4.7,15.1c1.4,5.3,5,10.1,8,14.9c4.5,7.3,7.8,15,9.8,22.9c1.9,7.3,2.4,15.5-3.1,21.5c-6,6.5-18.3,8.4-27.6,5
		c-9.3-3.4-15.3-11.2-16.4-19.2c-1.2-9.1,3.2-18,6.6-26.8c3.4-8.8,5.6-18.6,0.3-26.8s-20.9-12.3-28.8-5.6c-6.4,5.4-4.3,14-1.3,21
		c3,7,6.6,14.9,2.2,21.4c-3.5,5.2-11.9,7.9-19,6.2c-7.1-1.8-12-7.9-11-13.7c0.9-5,5.4-9.1,8.8-13.4c3.4-4.3,5.7-10.1,2.2-14.3
		c-4.3-5.2-14.1-4.6-21.8-3.4L236.8,360.8L236.8,360.8z"/>
	
		<ellipse transform="matrix(0.8873 -0.4611 0.4611 0.8873 -325.3266 216.1945)" class="st12" cx="279.8" cy="773.9" rx="35.9" ry="55.2"/>
	
		<ellipse transform="matrix(0.2617 -0.9652 0.9652 0.2617 -541.4752 703.45)" class="st12" cx="189" cy="705.6" rx="35.9" ry="55.2"/>
	<path class="st13" d="M269.6,744.4c-1.8,4-4,8-6.5,11.9c-1,1.5-2,3-3.1,4.3c-3.3,4.4-6.9,8.2-10.6,11.6c-4.7,4.2-9.6,7.5-14.6,9.9
		c-8.3,4-16.6,5.4-23.9,3.8c-2.9-0.6-5.7-1.8-8.2-3.4c-1.5-1-2.9-2.2-4.2-3.5c-6.9-7.2-9.3-18.8-7.5-31.6c0.7-5,2.1-10.1,4.1-15.3
		c2-5.2,4.7-10.4,8-15.4c0.3-0.5,0.6-0.9,0.9-1.3c3-4.3,6.3-8.2,9.8-11.7c9-8.9,19.3-14.8,28.9-16.6c7.7-1.5,14.9-0.5,20.8,3.5
		c5.6,3.7,9.3,9.5,11,16.6C277.3,717.7,275.6,731.1,269.6,744.4z"/>
	<ellipse transform="matrix(0.5518 -0.834 0.834 0.5518 -566.636 521.277)" class="st14" cx="201.6" cy="787.8" rx="9.7" ry="9.2"/>
	
		<ellipse transform="matrix(0.5518 -0.834 0.834 0.5518 -453.5555 528.721)" class="st14" cx="265.1" cy="686.3" rx="20.5" ry="24.8"/>
	<path class="st14" d="M269.6,744.4c-1.8,4-4,8-6.5,11.9c-1,1.5-2,3-3.1,4.3c-13.9-19.7-44.8-38.9-55.9-45.3c3-4.3,6.3-8.2,9.8-11.7
		C241.3,716,259.1,732.1,269.6,744.4z"/>
	<path class="st14" d="M249.4,772.2c-4.7,4.2-9.6,7.5-14.6,9.9c-12.4-14.1-31.6-27.2-43.7-34.7c0.7-5,2.1-10.1,4.1-15.3
		C221.7,744.4,239,760.1,249.4,772.2z"/>
	
		<ellipse transform="matrix(0.9706 -0.2406 0.2406 0.9706 -91.1761 189.7274)" class="st12" cx="731.4" cy="468.3" rx="43.7" ry="28.4"/>
	
		<ellipse transform="matrix(0.4803 -0.8771 0.8771 0.4803 -116.7915 853.7772)" class="st12" cx="662.1" cy="525.4" rx="43.7" ry="28.4"/>
	<path class="st13" d="M706.9,470.6c2.7,2.1,5.4,4.5,7.9,7.2c1,1,1.9,2.1,2.8,3.2c2.7,3.3,5.1,6.8,6.9,10.3c2.3,4.4,4,8.8,4.9,13.1
		c1.6,7.1,1.1,13.8-1.5,19.1c-1,2.1-2.4,4-4.2,5.7c-1.1,1-2.2,1.9-3.5,2.6c-6.8,3.9-16.2,3.7-25.7-0.1c-3.7-1.5-7.4-3.5-11-6
		c-3.6-2.5-7.1-5.5-10.4-9c-0.3-0.3-0.6-0.6-0.9-0.9c-2.8-3.1-5.2-6.4-7.2-9.7c-5.2-8.6-7.8-17.6-7.4-25.3
		c0.3-6.2,2.4-11.6,6.5-15.4c3.9-3.6,9.1-5.4,14.9-5.4C687.7,459.8,697.8,463.5,706.9,470.6z"/>
	
		<ellipse transform="matrix(0.7317 -0.6817 0.6817 0.7317 -166.6958 638.4998)" class="st14" cx="727.7" cy="531" rx="7.3" ry="7.7"/>
	
		<ellipse transform="matrix(0.7317 -0.6817 0.6817 0.7317 -138.3829 575.1276)" class="st14" cx="661.3" cy="463.3" rx="19.6" ry="16.2"/>
	<path class="st14" d="M706.9,470.6c2.7,2.1,5.4,4.5,7.9,7.2c1,1,1.9,2.1,2.8,3.2c-17.8,7-38.2,27.3-45.3,34.7
		c-2.8-3.1-5.2-6.4-7.2-9.7C679.7,487.2,695.5,476.5,706.9,470.6z"/>
	<path class="st14" d="M724.5,491.3c2.3,4.4,4,8.8,4.9,13.1c-13.1,6.9-26.8,19.3-34.8,27.2c-3.7-1.5-7.4-3.5-11-6
		C698,507.5,713.3,497.1,724.5,491.3z"/>
	
		<ellipse transform="matrix(0.9999 -1.024000e-02 1.024000e-02 0.9999 -4.0036 3.0044)" class="st12" cx="291.4" cy="392.5" rx="24.2" ry="37.2"/>
	
		<ellipse transform="matrix(0.6697 -0.7427 0.7427 0.6697 -155.3614 298.2723)" class="st12" cx="257.6" cy="323.8" rx="24.2" ry="37.2"/>
	<path class="st13" d="M294.3,371.7c-2.3,1.9-4.8,3.6-7.5,5.1c-1.1,0.6-2.1,1.2-3.2,1.7c-3.3,1.6-6.6,2.9-9.9,3.7
		c-4.1,1.1-8.1,1.6-11.8,1.5c-6.2-0.1-11.6-1.8-15.5-5c-1.6-1.3-2.9-2.8-3.9-4.6c-0.6-1.1-1.1-2.2-1.4-3.4
		c-1.9-6.4,0.1-14.1,5.1-21.3c1.9-2.8,4.3-5.5,7.2-8c2.8-2.5,6-4.8,9.5-6.8c0.3-0.2,0.6-0.4,1-0.5c3.1-1.7,6.3-3,9.4-4.1
		c8.1-2.6,16.1-3,22.5-1.2c5.1,1.5,9.1,4.3,11.5,8.4c2.2,3.9,2.7,8.6,1.6,13.4C307,357.9,301.9,365.5,294.3,371.7z"/>
	
		<ellipse transform="matrix(0.8692 -0.4945 0.4945 0.8692 -155.0295 168.0942)" class="st14" cx="240.2" cy="377" rx="6.5" ry="6.2"/>
	
		<ellipse transform="matrix(0.8692 -0.4945 0.4945 0.8692 -125.3725 196.8093)" class="st14" cx="309.2" cy="335.3" rx="13.8" ry="16.7"/>
	<path class="st14" d="M294.3,371.7c-2.3,1.9-4.8,3.6-7.5,5.1c-1.1,0.6-2.1,1.2-3.2,1.7c-2.3-16.1-15.1-37-19.8-44.3
		c3.1-1.7,6.3-3,9.4-4.1C285.9,345.9,291.7,361,294.3,371.7z"/>
	<path class="st14" d="M273.6,382.2c-4.1,1.1-8.1,1.6-11.8,1.5c-3.1-12.2-10.7-26-15.7-34.2c1.9-2.8,4.3-5.5,7.2-8
		C265.5,357,271.1,371.8,273.6,382.2z"/>
</g>
<g id="ruche_fumée">
	<polygon class="st15" points="772.5,325.1 772.5,345.9 500.2,190.7 228,348.7 228,327.9 500.2,169.9 	"/>
	<path class="st16" d="M500.2,190.7L228,348.7v618.9h544.5V345.9L500.2,190.7z M500.6,295.5c-8.7,0-15.7-7-15.7-15.7
		c0-8.6,7-15.7,15.7-15.7s15.7,7,15.7,15.7C516.2,288.4,509.2,295.5,500.6,295.5z"/>
	<path class="st16" d="M484.9,279.8c0-8.6,7-15.7,15.7-15.7s15.7,7,15.7,15.7c0,8.7-7,15.7-15.7,15.7S484.9,288.4,484.9,279.8z"/>
	<rect x="236.7" y="967.6" class="st16" width="544.5" height="20.8"/>
	<path class="st17" d="M516.2,279.8c0,8.7-7,15.7-15.7,15.7s-15.7-7-15.7-15.7c0-8.6,7-15.7,15.7-15.7S516.2,271.1,516.2,279.8z"/>
	<rect x="228" y="348.7" class="st18" width="544.5" height="210"/>
	<rect x="228" y="566.1" class="st18" width="544.5" height="210"/>
	<rect x="228" y="783.6" class="st18" width="544.5" height="210"/>
	<rect x="451.1" y="434.8" class="st19" width="98.2" height="37.9"/>
	<rect x="451.1" y="652.2" class="st19" width="98.2" height="37.9"/>
	<rect x="451.1" y="869.6" class="st19" width="98.2" height="37.9"/>
	<path class="st20" d="M237,800.5l-14.1-0.9c-2.8-12.7,5.9-25.6,16.4-31c10.5-5.4,22.5-5.2,34-6c32.2-2.3,63.7-12.7,95.8-16.1
		c18.5-2,37.2-1.6,55.8-1.1c110.7,2.7,221.5,7.7,332,14.9c6.9,0.4,14.5,1.2,19.4,6.9c5.4,6.3,4.9,17.7-1,23.4c0,0-11.7-0.4-16,3.8
		c-4.3,4.2-5.9,11.6-3.8,17.6c1.3,3.8,4,7.4,3.5,11.4c-0.7,5.5-7.4,7.7-11.7,5c-4.3-2.7-6.3-8.5-7.2-13.9c-1-5.5-1.2-11.2-3.1-16.2
		c-11.6-4.9-24.7,11-36,5.2c-6.8-3.5-10.5-14-18-14c-5.5,0-9.7,6.5-9.9,12.7c-0.2,6.3,2.3,12.2,4.9,17.7c4.2,8.9,8.8,18.2,9,28.3
		c0.2,10.1-5.7,21.2-14.6,22c-10.8,0.8-18.1-14.2-16-26.3c1.4-7.8,4.9-17.3-0.2-22.7c-9.1-9.6-24.3,13.2-34.6,5.4
		c-4.4-3.3-4.9-10.4-8.1-15.2c-6.6-10-22.2-4.9-26.9,6.5c-4.7,11.3-1.6,24.8,2.9,36.2c3.7,9.3,8.2,18.3,9.1,28.4
		c0.9,10.1-3.4,21.7-11.9,24.5c-6.1,2-12.6-1-17.6-5.3c-9.6-8.4-15.1-22.3-14.4-36c0.6-10.5,4.6-20.3,6.1-30.6
		c1.5-10.3-0.3-22.7-8.2-28.1c-9.7-6.6-22.2,0.6-33.3-1.4c-6.4-1.2-12-5.3-18.3-7.1c-6.3-1.8-14.3-0.3-16.8,6.4
		c-4.1,10.7,8.5,25.5,0.9,33.4c-4.5,4.7-12.3,0.9-15.1-5.2c-2.9-6.1-2.5-13.4-3.1-20.3c-0.6-6.9-2.7-14.5-8.2-17.5
		c-9.6-5.2-19.6,7.5-30.3,8c-6.2,0.3-11.8-3.6-17.5-6.2c-5.7-2.6-13-3.6-17.4,1.3c-7.2,8.1-0.6,24.9-8.6,31.9
		c-4.1,3.6-10.5,2.1-14-2.2c-3.5-4.3-4.4-10.8-3.6-16.6c0.9-6.4,3.8-13.2,1.3-19.1c-2.9-7-12.5-7.7-17.6-2.5
		c-5.1,5.2-6.2,14-4.7,21.6c1.4,7.6,5,14.4,8,21.5c4.5,10.5,7.8,21.6,9.8,33c1.9,10.5,2.4,22.2-3.1,30.9c-6,9.4-18.3,12.1-27.6,7.2
		c-9.3-4.9-15.3-16.1-16.4-27.6c-1.2-13.1,3.2-25.9,6.6-38.5c3.4-12.6,5.6-26.8,0.3-38.5c-5.2-11.7-20.9-17.7-28.8-8.1
		c-6.4,7.8-4.3,20.2-1.3,30.2c3,10,6.6,21.4,2.2,30.8c-3.5,7.5-11.9,11.4-19,8.9c-7.1-2.6-12-11.3-11-19.7
		c0.9-7.2,5.4-13.1,8.8-19.3c3.4-6.2,5.7-14.4,2.2-20.5c-4.3-7.5-14.1-6.6-21.8-4.9L237,800.5L237,800.5z"/>
	<path class="st20" d="M765.3,573l-17.8-2.8c-7.7-1.3-17.4-1.9-21.8,3.6c-3.5,4.4-1.2,10.4,2.2,14.9c3.4,4.5,7.9,8.8,8.8,14
		c1,6.1-3.9,12.5-11,14.3c-7.1,1.9-15.5-1-19-6.4c-4.3-6.8-0.8-15.1,2.2-22.4c3-7.3,5-16.3-1.3-22c-7.9-7-23.5-2.7-28.8,5.9
		s-3,18.9,0.3,28c3.4,9.2,7.8,18.5,6.6,28c-1.1,8.4-7.1,16.6-16.4,20.1c-9.3,3.5-21.6,1.6-27.6-5.3c-5.5-6.3-4.9-14.9-3.1-22.5
		c2-8.3,5.3-16.4,9.8-24c3-5.1,6.5-10.1,8-15.6c1.4-5.5,0.3-12-4.7-15.8c-5.1-3.8-14.6-3.3-17.6,1.8c-2.5,4.3,0.4,9.3,1.3,13.9
		c0.9,4.2,0,8.9-3.6,12.1c-3.5,3.2-9.9,4.2-14,1.6c-8-5.1-1.4-17.3-8.6-23.2c-4.4-3.6-11.7-2.9-17.4-1c-5.7,1.9-11.4,4.7-17.5,4.5
		c-10.6-0.4-20.7-9.6-30.3-5.8c-5.5,2.2-7.6,7.7-8.2,12.7c-0.6,5-0.2,10.3-3.1,14.8c-2.9,4.5-10.6,7.2-15.1,3.8
		c-7.6-5.8,5-16.5,0.9-24.3c-2.6-4.9-10.6-6-16.8-4.7c-6.3,1.3-11.9,4.3-18.3,5.2c-11.1,1.5-23.6-3.8-33.3,1
		c-7.9,3.9-9.7,12.9-8.2,20.4c1.5,7.5,5.5,14.7,6.1,22.3c0.8,10-4.8,20.1-14.4,26.2c-5,3.2-11.5,5.3-17.6,3.9
		c-8.6-2-12.8-10.5-11.9-17.8c0.9-7.3,5.4-14,9.1-20.7c4.5-8.3,7.6-18.1,2.9-26.4c-4.7-8.2-20.3-12-26.9-4.7
		c-3.1,3.5-3.7,8.6-8.1,11c-10.4,5.7-25.5-10.9-34.6-3.9c-5.1,3.9-1.6,10.8-0.2,16.5c2.1,8.8-5.2,19.8-16,19.2
		c-8.9-0.5-14.9-8.6-14.6-16c0.2-7.4,4.8-14.1,9-20.6c2.6-4,5.2-8.3,4.9-12.9c-0.2-4.6-4.4-9.3-9.9-9.3c-7.4,0-11.2,7.7-18,10.2
		c-11.3,4.2-24.3-7.4-36-3.8c-2,3.7-2.2,7.9-3.1,11.8c-1,4-3,8.1-7.2,10.1c-4.3,2-11,0.4-11.7-3.6c-0.5-3,2.2-5.6,3.5-8.3
		c2.1-4.4,0.5-9.8-3.8-12.8c-4.3-3.1-16-2.7-16-2.7c-5.9-4.1-6.4-12.4-1-17c4.9-4.1,12.5-4.7,19.4-5c110.6-5.2,221.3-8.9,332-10.8
		c18.6-0.3,37.2-0.6,55.8,0.8c32.2,2.5,63.6,10.1,95.8,11.8c11.5,0.6,23.5,0.5,34,4.4c10.5,3.9,19.2,13.3,16.4,22.6L765.3,573
		L765.3,573z"/>
	<path class="st20" d="M237,360.8l-14.1-0.6c-2.8-8.8,5.9-17.9,16.4-21.6c10.5-3.7,22.5-3.6,34-4.2c32.2-1.6,63.7-8.9,95.8-11.2
		c18.5-1.4,37.2-1.1,55.8-0.8c110.7,1.9,221.5,5.4,332,10.4c6.9,0.3,14.5,0.9,19.4,4.8c5.4,4.4,4.9,12.3-1,16.3c0,0-11.7-0.3-16,2.6
		c-4.3,2.9-5.9,8.1-3.8,12.2c1.3,2.7,4,5.1,3.5,8c-0.7,3.8-7.4,5.4-11.7,3.4c-4.3-1.9-6.3-5.9-7.2-9.7c-1-3.8-1.2-7.8-3.1-11.3
		c-11.6-3.4-24.7,7.7-36,3.6c-6.8-2.4-10.5-9.7-18-9.8c-5.5,0-9.7,4.5-9.9,8.9c-0.2,4.4,2.3,8.5,4.9,12.3c4.2,6.2,8.8,12.7,9,19.7
		c0.2,7.1-5.7,14.8-14.6,15.3c-10.8,0.6-18.1-9.9-16-18.3c1.4-5.4,4.9-12-0.2-15.8c-9.1-6.7-24.3,9.2-34.6,3.8
		c-4.4-2.3-4.9-7.2-8.1-10.5c-6.6-7-22.2-3.4-26.9,4.5c-4.7,7.9-1.6,17.3,2.9,25.2c3.7,6.4,8.2,12.8,9.1,19.8
		c0.9,7-3.4,15.1-11.9,17c-6.1,1.4-12.6-0.7-17.6-3.7c-9.6-5.8-15.1-15.5-14.4-25c0.6-7.3,4.6-14.1,6.1-21.3
		c1.5-7.2-0.3-15.8-8.2-19.5c-9.7-4.6-22.2,0.4-33.3-1c-6.4-0.8-12-3.7-18.3-5c-6.3-1.3-14.3-0.2-16.8,4.4
		c-4.1,7.5,8.5,17.7,0.9,23.2c-4.5,3.3-12.3,0.6-15.1-3.7c-2.9-4.3-2.5-9.3-3.1-14.1c-0.6-4.8-2.7-10.1-8.2-12.2
		c-9.6-3.6-19.6,5.2-30.3,5.6c-6.2,0.2-11.8-2.5-17.5-4.3c-5.7-1.8-13-2.5-17.4,0.9c-7.2,5.6-0.6,17.3-8.6,22.2
		c-4.1,2.5-10.5,1.5-14-1.5c-3.5-3-4.4-7.5-3.6-11.5c0.9-4.5,3.8-9.2,1.3-13.3c-2.9-4.9-12.5-5.4-17.6-1.8
		c-5.1,3.6-6.2,9.8-4.7,15.1c1.4,5.3,5,10.1,8,14.9c4.5,7.3,7.8,15,9.8,22.9c1.9,7.3,2.4,15.5-3.1,21.5c-6,6.5-18.3,8.4-27.6,5
		c-9.3-3.4-15.3-11.2-16.4-19.2c-1.2-9.1,3.2-18,6.6-26.8c3.4-8.8,5.6-18.6,0.3-26.8s-20.9-12.3-28.8-5.6c-6.4,5.4-4.3,14-1.3,21
		c3,7,6.6,14.9,2.2,21.4c-3.5,5.2-11.9,7.9-19,6.2c-7.1-1.8-12-7.9-11-13.7c0.9-5,5.4-9.1,8.8-13.4c3.4-4.3,5.7-10.1,2.2-14.3
		c-4.3-5.2-14.1-4.6-21.8-3.4L237,360.8L237,360.8z"/>
	<path class="st21" d="M400.2,486.6c-2.7,18.1-18.5,33.9-48.7,26.6c-1.7,46.9-55.5,47.4-70.4,25.2c-16.2,14.4-35.7,5-35.7,5
		c-2.5,4.3-10.5,16.7-26.3,22.6c-17.4,6.4-38.1,2.7-52-10.5c-12.4-11.8-14.6-26.7-15.1-31.5c-26.1-1.4-38.7-16.5-41-33.5
		c1.3-24.9,25.3-49.5,60.6-33.8c0-45.9,74.8-86,113.3-25.5c33.4-20.8,63.9,6.3,66.2,26.6C381.8,449,398.8,467.4,400.2,486.6z"/>
	<path class="st22" d="M400.2,486.6c-1.3-19.2-18.4-37.6-49.2-28.8c-2.2-20.3-32.8-47.4-66.2-26.6c-38.5-60.4-113.3-20.3-113.3,25.5
		c-35.3-15.7-59.3,9-60.6,33.8c-3.8-28.4,21.4-61.7,60.4-43.6c0-48.2,75-90.4,113.5-26.8c33.5-21.9,64.1,6.7,66.3,28
		C386.3,437.6,403.5,464,400.2,486.6z"/>
	<path class="st21" d="M915.3,784.1c-3.4,22.7-23.2,42.5-61.2,33.4c-2.2,58.9-69.6,59.6-88.4,31.7c-20.4,18.1-44.8,6.3-44.8,6.3
		c-3.1,5.4-13.1,21-33,28.3c-21.8,8.1-47.9,3.4-65.3-13.2c-15.5-14.8-18.3-33.5-18.9-39.6c-32.8-1.7-48.7-20.8-51.5-42
		c1.6-31.2,31.7-62.2,76.1-42.5c0-57.6,93.9-107.9,142.2-32c41.9-26.1,80.3,7.9,83.1,33.4C892.2,736.8,913.6,759.9,915.3,784.1z"/>
	<path class="st22" d="M915.3,784.1c-1.7-24.2-23-47.3-61.8-36.1c-2.8-25.5-41.2-59.5-83.1-33.4c-48.3-75.9-142.3-25.5-142.2,32
		c-44.4-19.7-74.5,11.3-76.1,42.5c-4.8-35.6,26.8-77.5,75.9-54.7c0-60.6,94.1-113.5,142.6-33.7c42-27.5,80.5,8.4,83.3,35.2
		C897.8,722.5,919.5,755.6,915.3,784.1z"/>
	<path class="st21" d="M255.8,717.4c1.4,9.5,9.7,17.8,25.6,14c0.9,24.6,29.1,24.9,37,13.3c8.5,7.6,18.7,2.6,18.7,2.6
		c1.3,2.2,5.5,8.8,13.8,11.9c9.1,3.4,20,1.4,27.3-5.5c6.5-6.2,7.7-14,7.9-16.5c13.7-0.7,20.3-8.7,21.5-17.6
		c-0.7-13.1-13.3-26-31.8-17.8c0-24.1-39.3-45.1-59.5-13.4c-17.5-10.9-33.6,3.3-34.7,14C265.4,697.7,256.5,707.3,255.8,717.4z"/>
	<path class="st22" d="M255.8,717.4c0.7-10.1,9.6-19.8,25.8-15.1c1.2-10.7,17.2-24.9,34.7-14c20.2-31.7,59.5-10.7,59.5,13.4
		c18.6-8.2,31.1,4.7,31.8,17.8c2-14.9-11.2-32.4-31.7-22.9c0-25.3-39.4-47.5-59.6-14.1c-17.6-11.5-33.7,3.5-34.8,14.7
		C263.1,691.7,254,705.5,255.8,717.4z"/>
	<path class="st21" d="M267.3,434.7c3.4,23.3,23.7,43.5,62.6,34.2c2.2,60.3,71.3,61,90.5,32.4c20.9,18.5,45.9,6.4,45.9,6.4
		c3.2,5.5,13.5,21.5,33.8,29c22.3,8.3,49,3.5,66.8-13.5c15.9-15.2,18.7-34.3,19.4-40.5c33.6-1.8,49.8-21.3,52.7-43
		c-1.7-31.9-32.5-63.6-77.9-43.5c0-58.9-96.1-110.5-145.6-32.8c-42.9-26.7-82.2,8.1-85,34.2C290.9,386.3,269,409.9,267.3,434.7z"/>
	<path class="st22" d="M267.3,434.7c1.7-24.7,23.6-48.4,63.3-37c2.8-26.1,42.1-61,85-34.2c49.5-77.7,145.6-26.1,145.6,32.8
		c45.4-20.1,76.2,11.5,77.9,43.5c4.9-36.5-27.5-79.4-77.6-56c0-62-96.4-116.2-145.9-34.5c-43-28.1-82.4,8.6-85.2,36
		C285.1,371.6,263,405.5,267.3,434.7z"/>
	<path class="st21" d="M491,860.7c2.4,16,16.3,29.9,43,23.5c1.5,41.4,49,41.9,62.2,22.3c14.3,12.7,31.5,4.4,31.5,4.4
		c2.2,3.8,9.2,14.8,23.2,19.9c15.3,5.7,33.7,2.4,45.9-9.3c10.9-10.4,12.9-23.6,13.3-27.8c23.1-1.2,34.2-14.6,36.2-29.6
		c-1.1-22-22.3-43.7-53.5-29.9c0-40.5-66.1-75.9-100.1-22.5c-29.5-18.4-56.5,5.6-58.4,23.5C507.2,827.5,492.2,843.7,491,860.7z"/>
	<path class="st22" d="M491,860.7c1.2-17,16.2-33.2,43.5-25.4c2-17.9,28.9-41.9,58.4-23.5c34-53.4,100.1-18,100.1,22.5
		c31.2-13.8,52.4,7.9,53.5,29.9c3.4-25.1-18.9-54.5-53.4-38.5c0-42.6-66.2-79.9-100.3-23.7c-29.5-19.3-56.6,5.9-58.6,24.7
		C503.3,817.4,488.1,840.7,491,860.7z"/>
	<path class="st21" d="M308.9,859.2c-1.7,12.7-11.5,23.8-30.4,18.7c-1.1,32.9-34.6,33.3-44,17.7c-10.1,10.1-22.3,3.5-22.3,3.5
		c-1.5,3-6.5,11.7-16.4,15.8c-10.8,4.5-23.8,1.9-32.5-7.4c-7.7-8.3-9.1-18.7-9.4-22.1c-16.3-1-24.2-11.6-25.6-23.5
		c0.8-17.4,15.8-34.7,37.8-23.7c0-32.2,46.7-60.3,70.7-17.9c20.8-14.6,39.9,4.4,41.3,18.7C297.5,832.8,308.1,845.7,308.9,859.2z"/>
	<path class="st22" d="M308.9,859.2c-0.8-13.5-11.5-26.4-30.7-20.2c-1.4-14.3-20.5-33.3-41.3-18.7c-24-42.4-70.7-14.3-70.7,17.9
		c-22.1-11-37,6.3-37.8,23.7c-2.4-19.9,13.3-43.3,37.7-30.6c0-33.9,46.8-63.5,70.9-18.8c20.9-15.3,40,4.7,41.4,19.7
		C300.3,824.8,311,843.3,308.9,859.2z"/>
</g>
<g id="ruche_pluie" class="st0">
	<polygon class="st6" points="772.2,325.1 772.2,345.9 500,190.7 227.8,348.7 227.8,327.9 500,169.9 	"/>
	<path class="st7" d="M500,190.7l-272.2,158v618.9h544.5V345.9L500,190.7z M500.4,295.5c-8.7,0-15.7-7-15.7-15.7
		c0-8.6,7-15.7,15.7-15.7s15.7,7,15.7,15.7C516,288.4,509,295.5,500.4,295.5z"/>
	<path class="st7" d="M484.7,279.8c0-8.6,7-15.7,15.7-15.7s15.7,7,15.7,15.7c0,8.7-7,15.7-15.7,15.7S484.7,288.4,484.7,279.8z"/>
	<rect x="227.8" y="967.6" class="st7" width="544.5" height="20.8"/>
	<path class="st8" d="M516,279.8c0,8.7-7,15.7-15.7,15.7s-15.7-7-15.7-15.7c0-8.6,7-15.7,15.7-15.7S516,271.1,516,279.8z"/>
	<rect x="227.8" y="348.7" class="st9" width="544.5" height="210"/>
	<rect x="227.8" y="566.1" class="st9" width="544.5" height="210"/>
	<rect x="227.8" y="783.6" class="st9" width="544.5" height="210"/>
	<rect x="450.9" y="434.8" class="st10" width="98.2" height="37.9"/>
	<rect x="450.9" y="652.2" class="st10" width="98.2" height="37.9"/>
	<rect x="450.9" y="869.6" class="st10" width="98.2" height="37.9"/>
	<path class="st23" d="M357.3,482.7c0,15.3-12.8,27.8-28.7,27.8c-15.8,0-28.7-12.4-28.7-27.8c0-1.8,0.2-3.5,0.5-5.2
		c0.5-4.7,1.2-9.5,2-14.4c5.2-31.2,15.4-57.7,26.2-78.8c11,20.2,21.9,46.6,26.6,78.3c0.8,5.7,1.5,11.3,1.8,16.7
		C357.3,480.3,357.3,481.5,357.3,482.7z"/>
	<path class="st23" d="M274.1,639.6c0,10.3-8.6,18.6-19.3,18.6c-10.6,0-19.3-8.3-19.3-18.6c0-1.2,0.1-2.4,0.3-3.5
		c0.3-3.1,0.8-6.4,1.3-9.6c3.5-21,10.3-38.7,17.6-52.9c7.4,13.6,14.7,31.2,17.9,52.5c0.6,3.8,1,7.6,1.2,11.2
		C274.1,638,274.1,638.8,274.1,639.6z"/>
	<path class="st23" d="M235.6,366.4c0,7.7-6.4,13.9-14.3,13.9c-7.9,0-14.3-6.2-14.3-13.9c0-0.9,0.1-1.8,0.3-2.6
		c0.3-2.3,0.6-4.7,1-7.2c2.6-15.6,7.7-28.8,13.1-39.4c5.5,10.1,10.9,23.3,13.3,39.2c0.4,2.9,0.7,5.6,0.9,8.3
		C235.6,365.2,235.6,365.8,235.6,366.4z"/>
	<path class="st23" d="M788.8,462.2c0,15.3-12.8,27.8-28.7,27.8s-28.7-12.4-28.7-27.8c0-1.8,0.2-3.5,0.5-5.2c0.5-4.7,1.2-9.5,2-14.4
		c5.2-31.2,15.4-57.7,26.2-78.8c11,20.2,21.9,46.6,26.6,78.3c0.8,5.7,1.5,11.3,1.8,16.7C788.8,459.9,788.8,461,788.8,462.2z"/>
	<path class="st23" d="M752.2,783.7c0,10-8.4,18.1-18.7,18.1c-10.3,0-18.7-8.1-18.7-18.1c0-1.2,0.1-2.3,0.3-3.4
		c0.3-3,0.8-6.2,1.3-9.4c3.4-20.3,10-37.6,17.1-51.3c7.2,13.2,14.3,30.3,17.3,51c0.6,3.7,0.9,7.3,1.2,10.8
		C752.2,782.2,752.2,783,752.2,783.7z"/>
	<path class="st23" d="M676.5,651.2c0,15.3-9.4,27.8-20.9,27.8c-11.6,0-20.9-12.4-20.9-27.8c0-1.8,0.1-3.5,0.4-5.2
		c0.4-4.7,0.8-9.5,1.4-14.4c3.8-31.2,11.2-57.7,19.1-78.8c8,20.2,16,46.6,19.4,78.3c0.6,5.7,1.1,11.3,1.3,16.7
		C676.4,648.9,676.5,650,676.5,651.2z"/>
	<path class="st23" d="M511.9,701.2c0,18.7-15.7,33.9-35,33.9c-19.3,0-35-15.2-35-33.9c0-2.2,0.2-4.3,0.6-6.4
		c0.6-5.7,1.4-11.5,2.4-17.5c6.3-38,18.7-70.3,31.9-96c13.5,24.6,26.7,56.7,32.4,95.4c1,7,1.8,13.7,2.3,20.3
		C511.9,698.4,511.9,699.8,511.9,701.2z"/>
	<path class="st23" d="M556.8,514.6c0,10.7-9,19.4-20,19.4c-11,0-20-8.7-20-19.4c0-1.2,0.1-2.5,0.4-3.6c0.3-3.3,0.8-6.6,1.4-10
		c3.6-21.8,10.7-40.2,18.3-54.9c7.7,14.1,15.3,32.4,18.6,54.6c0.6,4,1,7.9,1.3,11.6C556.8,513,556.8,513.8,556.8,514.6z"/>
	<path class="st23" d="M334.2,817.5c0,6.8-5.7,12.4-12.8,12.4c-7.1,0-12.8-5.5-12.8-12.4c0-0.8,0.1-1.6,0.2-2.3
		c0.2-2.1,0.5-4.2,0.9-6.4c2.3-13.9,6.9-25.7,11.7-35.1c4.9,9,9.7,20.7,11.9,34.9c0.4,2.6,0.6,5,0.8,7.4
		C334.2,816.5,334.2,817,334.2,817.5z"/>
	<path class="st24" d="M864.3,254.8c-6.6,44.8-45.6,83.8-120.5,65.8c-4.2,116-137.2,117.4-174.2,62.4
		c-40.1,35.6-88.3,12.4-88.3,12.4c-6.1,10.5-25.9,41.3-65.1,55.8c-43,15.9-94.3,6.8-128.6-25.9c-30.6-29.2-36.1-66.1-37.3-77.9
		c-64.7-3.4-95.9-40.9-101.5-82.8c3.2-61.5,62.5-122.5,149.9-83.7c0-113.4,185-212.7,280.2-63.1c82.6-51.4,158.2,15.6,163.6,65.9
		C818.9,161.7,861,207.2,864.3,254.8z"/>
	<path class="st25" d="M864.3,254.8c-3.3-47.6-45.4-93.1-121.8-71.1c-5.5-50.2-81.1-117.3-163.6-65.9
		c-95.2-149.5-280.2-50.3-280.2,63.1c-87.4-38.8-146.7,22.2-149.9,83.7c-9.4-70.2,52.9-152.7,149.4-107.8
		c0-119.3,185.5-223.7,280.8-66.4c82.8-54.1,158.5,16.5,164,69.3C829.9,133.5,872.5,198.7,864.3,254.8z"/>
</g>
<g id="ruche_voleur" class="st0">
	<polygon class="st6" points="772.2,325.1 772.2,345.9 499.9,190.7 227.7,348.7 227.7,327.9 499.9,169.9 	"/>
	<path class="st7" d="M499.9,190.7l-272.2,158v618.9h544.5V345.9L499.9,190.7z M500.3,295.5c-8.7,0-15.7-7-15.7-15.7
		c0-8.6,7-15.7,15.7-15.7s15.7,7,15.7,15.7C515.9,288.4,508.9,295.5,500.3,295.5z"/>
	<path class="st7" d="M484.6,279.8c0-8.6,7-15.7,15.7-15.7s15.7,7,15.7,15.7c0,8.7-7,15.7-15.7,15.7S484.6,288.4,484.6,279.8z"/>
	<rect x="227.7" y="967.6" class="st7" width="544.5" height="20.8"/>
	<path class="st8" d="M515.9,279.8c0,8.7-7,15.7-15.7,15.7s-15.7-7-15.7-15.7c0-8.6,7-15.7,15.7-15.7S515.9,271.1,515.9,279.8z"/>
	<rect x="227.7" y="348.7" class="st9" width="544.5" height="210"/>
	<rect x="227.7" y="566.1" class="st9" width="544.5" height="210"/>
	<rect x="227.7" y="783.6" class="st9" width="544.5" height="210"/>
	<rect x="450.9" y="434.8" class="st10" width="98.2" height="37.9"/>
	<rect x="450.9" y="652.2" class="st10" width="98.2" height="37.9"/>
	<rect x="450.9" y="869.6" class="st10" width="98.2" height="37.9"/>
	<polygon class="st26" points="455,866.3 448.5,909.2 482.6,911.3 481.1,862 	"/>
	<path class="st27" d="M530.4,967.3l-95.5-46c0,0-2.7-0.4,2.4-15.9c1.2-2.5,5.2-15.2,9.9-17.3c1.8-0.8,3.2-4.1,3.6,0.7
		s4.6,10.4,15.3,9.1c10.6-1.4,14.5-4.3,16.8-7.8c0.9-0.8,1.7-1.5,5.6,3.5c3.9,5,15.4,20,18.1,22.2c14.4,15.1,43.1,21.4,33.2,40.1
		c-4,9.3-5,10.7-5.7,11.1C533.4,967.4,532.4,968.1,530.4,967.3z"/>
	<path class="st27" d="M223.1,471.5c-4.1,17.7-8.1,38.7-10.2,60.5l-6.9-9.6l-16.3-23l-3-4.2l-7.5-24.7l29.3-16c0,0,3.4,7.8,9.9,13.3
		c0.3,0.3,0.7,0.6,1,0.8C220.7,469.8,222,470.7,223.1,471.5z"/>
	<path class="st27" d="M270,525.6c-1.6,2.4-14.3-8.5-19.8-12.1c-5.5-3.6-5.3-2.5-6-1.6c-0.7,0.9-1.6,2.6,2.3,5.7
		c16.5,15.3,20.4,19.4,19,21.5c-1.4,2.1-26.8-17.5-28.4-18.7c-1.6-1.2-2.8-0.8-2.9,1.6c-0.1,2.4,12.3,15.5,16.6,22
		c8.5,13.4,0.2,8.5-1.2,7.4c-1.4-1.2-15.6-15.5-19.8-19.7c-4.2-4.2-10.2-5.1-8.7-2.6c10.5,18.8,11,24,9.5,25.6
		c-1.4,1.6-7.3-8.5-7.3-8.5L212.9,532c2.1-21.8,6.1-42.7,10.2-60.5c6.9,4.8,11,5.3,15.7,5.8c5.4,0.6,19.7,3.8,20.3,8.7
		c0.5,4.9-21.4,2.7-21.9,2.7c-0.5,0-0.6,0,4.3,5.8c7.2,8.7,16.5,15.7,22.4,20.9C269.7,520.6,271.6,523.2,270,525.6z"/>
	<path class="st27" d="M573.2,523.7c0,0,19,9.4,26.5,11.9c7.5,2.5,49.8,25.5,54.8,20.9c3.4-3.3-5.7-8.6-9.4-10.8s-9.9-5.8-10.7-6.8
		c-0.8-1-0.1-1.5,3.5-0.7s33.5,9.6,35,3.1s-13.5-7.5-16.8-8.2s-19.1-4-19.6-5.3c-0.5-1.3-0.3-2.7,5.9-2.2c6.1,0.5,32.8,3.5,33.1-2.3
		s-19.6-7.4-22.3-7.8c-2.7-0.4-7.2-0.3-6.9-1.4c0.3-1.2,24.3-0.2,24.5-5.7c0.1-5.5-16.8-4.2-20.4-4.3c-3.6-0.1-28.1-1.6-29.6-2.4
		c-1.5-0.8-2.5-4.8,0.1-5.7s20.7-9.9,18.3-13.4c-2.4-3.5-9,0.7-12.9,1.8c-4,1.1-6.4,6.9-39.8,6.9c-33.4,0.1-21.7,26.8-21.7,26.8
		L573.2,523.7z"/>
	<polygon class="st26" points="122.8,911.1 105.3,942.8 128.3,956.8 150.4,931 	"/>
	<path class="st27" d="M143.8,953.8c-2.4-2.9-5.9-10-9.3-6.3c-3.5,3.7-11.8,5.6-19.3-0.2s-6.3-12.9-5.7-14.1
		c0.5-1.2,1.6-6.3-3.2-1.6c0,0-3.7,3.6-13.3,22c-4.1,7.9-7.7,10.2-4.4,12.5c3.3,2.4,42.8,29.4,44.5,29.7c1.7,0.3,63.7,2.5,65.8,1.8
		s2.5-0.5,2.3-12.3c-0.2-11.7-1.5-16.9-8.1-17.8c-6.6-0.9-28.8-5.9-35.4-6.8S149.2,960.1,143.8,953.8z"/>
	<path class="st28" d="M324,270.5c0,0,18.6,1.5,20.4-2.3S364,210,364,210s-23.5-1-20-26.7c3.6-21.1,25.7-13.9,28.9-10.9
		c3.1,3,2.9,4.1,2.9,4.1l16.2-33.1l108.9,27.3c0,0-3.3,18.7-4.6,24.8c-12.9,41.9-16.8,89.5-55.3,92.7c-10,1.1-9.1,5.9-8.7,7.4
		c0.4,1.6,10.2,4,15.5,11s-29.6,13.2-29.6,13.2l-73-9.4l-30.3-19.8L324,270.5z"/>
	<path class="st29" d="M583.5,529.1c-1,0.3-41.8,3.7-65.9-0.5c-45.7-8.5-73.7-45.9-78.6-52.7c-18.4-21.9-17.7-32.1-18.6-36.1
		c-0.9-4-3.4-22.4-9.1-16.6C392.6,448,386.6,534.9,389,540.8c2.3,5.9,28.6,28.7,36.1,33.9s76,43.8,84,49.8
		c37.1,30.7,47.6,41.4,46.1,92.7c-2.1,48.1-54.6,162.4-56.7,159c0,0-0.2,0.7-2.3,3.2c-5.7,8-18.5,3.1-29.9,1.1
		c-22.7-4.5-18.7-13.2-18.5-16.1c0.2-2.9,9.9-109.9,9.6-133.1c-0.3-23.2-4.7-25.8-8-28.5c-3.3-2.7-55.5-23.1-55.5-23.1l-33.4-12.7
		c0,0,3.9,17.2,3.9,38.1c0.3,70.9-58.6,125.9-68.9,134.1c-10.4,8.2-120.1,90.3-133.4,97.5c-13.3,7.2-13,6.8-31.9-11.8
		c-23.7-20.2-14.1-14.6-10.1-22.7c2.6-3.7,92.5-127.1,92.5-127.1l40.1-55.3c-26.4-59.1-30.9-82.1-33.7-96.4
		c-2.8-14.4-7.2-24.9-7.7-61.8c0.1-9.9,0.7-19.9,1.6-29.7l10.4,14.4c0,0,5.9,10.1,7.3,8.5c1.4-1.6,1-6.8-9.5-25.6
		c-1.5-2.5,4.6-1.6,8.7,2.6c4.1,4.1,18.4,18.5,19.8,19.7c1.4,1.2,9.7,6,1.2-7.4c-4.2-6.5-16.7-19.6-16.6-22c0.1-2.5,1.3-2.8,2.9-1.6
		c1.6,1.2,27,20.8,28.4,18.7c1.4-2.1-2.5-6.2-19-21.5c-3.9-3.1-3-4.8-2.3-5.7c0.7-0.9,0.5-2,6,1.6c5.4,3.6,18.2,14.5,19.8,12.1
		c1.6-2.5-0.3-5.1-6.2-10.3c-5.9-5.2-15.2-12.2-22.4-20.9c-4.9-5.7-4.9-5.8-4.3-5.8c0.5,0,22.5,2.2,21.9-2.7
		c-0.5-4.9-14.9-8.1-20.3-8.7c-4.6-0.6-8.8-1-15.7-5.8c7-30.2,14.6-51.1,14.6-51.1l15.7-37.1l10.6-29.4c0,0,3.1-1.4-17.9,5.8
		c-34.3,10.8-41.3,16.6-42,39.6c-0.7,23,5.2,39.4,6.6,46.1c1.4,6.7,4,12.5,6.1,17.5c1.1,2.7,2.3,4,1.7,5.1c-0.5,0.9-2.2,1.7-6.1,3.1
		c-10.4,4.9-20.2,19.4-20.2,19.4c-1.8,1.6-2.1,6.3-2.5,9c-0.3,2.1-0.7,3-2,0.3c-30.2-49.6-34.7-96.5-34.9-102.8
		c-0.2-6.4-3.1-51.7,34.1-76.3c64.7-38.6,120-49.7,133.8-51.6c13.8-1.9,12.1,0.3,13.9,2.7c1.8,2.4,18.8,30.2,51.4,37.2
		c32.6,7,52.5-2.3,56.5-3.3c4.1-1,2.7-5.2,9.7,2.4c10.9,12.3,22.3,46.1,21.9,75.1c-0.4,29,6.7,58.9,25.5,77.9
		c18.8,19.1,60.6,25.2,60.6,25.2c4.8,0.7,21.5,2.4,26.6,3c5,0.5-2.9,15.9-3.3,20.4C583.1,514.2,584.5,528.8,583.5,529.1z"/>
	<path class="st30" d="M383.4,139.7c0,0,5.1-19.1,12.6-26.2c7.5-7.1,21.5-22.8,63.4-18.9c32.3,3,45.9,32.3,48.4,45.8
		c2.5,13.5,2.3,33.1,2.3,33.1l-56.7-4.1l-56.7-16.9L383.4,139.7z"/>
	<path class="st29" d="M453.8,183.8c0,0-41.3-10.4-60.8-20.6c-8.8-3.1-21.1-6.5-18.2-19.8c1.8-8.8,4-10.7,8.4-8.6
		c4.5,2.1,41.8,19.6,70.5,25.5c15.5,2.9,41.8,8.4,53.1,8.8c4.6,0.2,10.2,3.2,10.2,10.7c-0.1,7.5-6.6,10-15.3,10
		S461,185.7,453.8,183.8z"/>
	<path class="st14" d="M427.8,171.9c2.3,2.5,6.6,6.2,7.2,6.7s5.3,4,1-2.2c-4.3-6.1-11.2-15.7-11.8-15.7c-0.6,0-1.9-0.5-3,1.1
		s0.8,4.4,2.5,6.2S427.8,171.9,427.8,171.9z"/>
	<path class="st14" d="M479.6,190.1c-3,1-8.2,2.3-8.8,2.5c-0.7,0.2-6.1,1,0.2-2.3c6.2-3.2,16.2-8.1,16.7-7.9
		c0.5,0.2,1.7,0.4,1.9,2.2c0.2,1.9-2.7,3.4-4.9,4.1C482.4,189.4,479.6,190.1,479.6,190.1z"/>
	<path class="st14" d="M455.2,182.1c0,0,1,25.8,1,28c0,2.2,0.9,10.6-2.1,11c-3,0.4-13.5-2.4-14.6-3.5c-1.1-1.1,3.4-1.1,5.1-0.4
		c1.7,0.7,6,1.7,6.9,1.8s3.3,1.9,3.1-5c-0.2-6.9-0.7-32.3-0.7-32.3L455.2,182.1z"/>
	<ellipse class="st14" cx="425.8" cy="187.4" rx="5.8" ry="6.5"/>
	<ellipse class="st14" cx="475" cy="203.3" rx="5.5" ry="6.3"/>
	<path class="st14" d="M444.2,238.7c-1.6-2.8-10.5-10.4-13.4-11.9c-2.9-1.5-6.4-3.5-8.7-1.1c-0.6,1.5-1.4,3.6-1.6,4.9
		c-0.6,3.2-0.9,7.5,3.3,9.5c4.2,2.1,11.4,8.3,16.2,6.3C444.5,244.4,445.8,241.6,444.2,238.7z M440.9,244.2c-2.3,1.2-7.6-0.4-8.9-1
		c-1.4-0.6-7.8-4.6-9.3-5.5c-1.4-0.8-0.2-4,0.5-6.6c0.6-2.2,1.3-3.5,2.7-4.4c1.4-0.8,3.8,1.3,3.8,1.3s11.3,9.6,12.2,10.3
		C442.7,239,443.2,243,440.9,244.2z"/>
</g>
</svg>
