<svg xmlns="http://www.w3.org/2000/svg" viewBox="0 0 712.27 670.73"><defs><style>.cls-1{fill:none;stroke:#a6a8ab;stroke-linecap:round;stroke-miterlimit:10;stroke-width:28px;}.cls-2{fill:#ec1c24;}</style></defs><g id="Layer_2" data-name="Layer 2"><g id="parapluie"><path class="cls-1" d="M356.48,14V598.48s2.76,58.25-61.91,58.25c-50.44-.92-63.74-38.07-63.74-63.29"/><path class="cls-2" d="M355.41,33.72c-34.53.79-112.34,7.33-191.54,58.47-75.06,48.47-111.18,111.05-122,131.16A355.64,355.64,0,0,0,0,379.27c2.47-4.1,41.48-65.08,117.08-68.1,47.31-1.89,95.29,18.23,121.09,64,39.21-66,166.47-110.07,238.7,4.12,25.75-85.3,184.43-98.44,234,0C723.36,341.67,658.24,42.66,355.41,33.72Z"/></g></g></svg>