<svg xmlns="http://www.w3.org/2000/svg" viewBox="0 0 320.06 466.95"><defs><style>.cls-1{fill:#f1f1f2;stroke:#a6a8ab;stroke-miterlimit:10;stroke-width:5px;}.cls-2{fill:#fcb942;}.cls-3{fill:#f6921e;}</style></defs><g id="Layer_2" data-name="Layer 2"><g id="miel"><path class="cls-1" d="M317.56,97.65V427.19c0,20.58-15.83,37.26-35.36,37.26H37.87c-19.54,0-35.37-16.68-35.37-37.26V97.65C2.5,81.43,14.65,67.9,30.79,64.8v-21H289.26v21C305.41,67.9,317.56,81.43,317.56,97.65Z"/><rect class="cls-2" x="23.64" width="272.78" height="31.03" rx="15.51"/><path class="cls-3" d="M296.42,13.35V40.74a6.88,6.88,0,0,1-6.88,6.88h-259a6.88,6.88,0,0,1-6.87-6.88V13.35a6.89,6.89,0,0,1,6.87-6.88h259a6.83,6.83,0,0,1,5.64,3A6.72,6.72,0,0,1,296.42,13.35Z"/></g></g></svg>