<svg xmlns="http://www.w3.org/2000/svg" viewBox="0 0 733.1 692.65"><defs><style>.cls-1{fill:#e6e7e8;}.cls-2{fill:#767676;}.cls-3{fill:#5d5d5e;}.cls-4{fill:#cd8d5c;}</style></defs><g id="Layer_2" data-name="Layer 2"><g id="enfummoir"><polygon class="cls-1" points="80.41 177.63 0 46.47 0 0 350.45 168.84 247.64 211.87 80.41 177.63"/><rect class="cls-2" x="73.22" y="179.85" width="273.78" height="458.14" rx="39.55"/><rect class="cls-2" x="58.09" y="168.84" width="304.05" height="79.11" rx="11.69"/><rect class="cls-2" x="67.26" y="595.34" width="285.71" height="79.11" rx="11.69"/><rect class="cls-3" x="297.94" y="330.04" width="160.97" height="200.87" rx="13.76"/><polygon class="cls-4" points="457.69 658.39 548.79 670.78 720.76 191.08 457.69 149.35 457.69 658.39"/><rect class="cls-2" x="445.46" y="135.85" width="24.45" height="545.02" rx="9.93"/><rect class="cls-2" x="620.89" y="162.01" width="24.45" height="545.02" rx="9.93" transform="translate(181.96 -186.85) rotate(19.56)"/><ellipse class="cls-4" cx="327.75" cy="386.45" rx="10.09" ry="20.64"/><ellipse class="cls-4" cx="327.75" cy="480" rx="10.09" ry="20.64"/></g></g></svg>